<svg width="150" height="61" viewBox="0 0 150 61" fill="none" xmlns="http://www.w3.org/2000/svg">
<path d="M103.818 0.308701C103.7 0.0628931 103.419 -0.0576625 103.161 0.026883L74.8783 9.3175L60.6392 4.61739C60.3997 4.53911 60.1385 4.63461 60.0063 4.85068C59.8741 5.06674 59.9067 5.34542 60.0856 5.52547L74.0276 19.5585L46.1669 38.2603C45.9445 38.409 45.862 38.6986 45.974 38.9444C46.0642 39.1433 46.2602 39.2654 46.4686 39.2654C46.5168 39.2654 46.565 39.2591 46.6132 39.2451L74.8379 31.4058L95.5946 41.2193C95.6693 41.2538 95.747 41.271 95.8264 41.271C95.999 41.271 96.1669 41.188 96.2727 41.0377C96.4251 40.8201 96.3987 40.5242 96.212 40.3347L83.976 28.0193L78.9186 17.592L103.63 1.00385C103.857 0.851985 103.937 0.55451 103.818 0.308701ZM62.465 6.37563L74.124 10.2224L68.8427 12.7933L62.4665 6.37563H62.465ZM69.2486 13.2035L74.3309 10.7297L74.334 18.3216L69.2486 13.2035ZM74.334 20.6685V25.9025L50.7795 36.4817L74.334 20.6701V20.6685ZM51.5337 36.7416L74.3355 26.5022V30.4085L51.5337 36.7431V36.7416ZM75.421 11.6394L77.9762 16.9078L75.4242 18.6206L75.421 11.6394ZM75.4257 20.9691L82.5577 28.1477L75.4273 25.8368V20.9691H75.4257ZM75.4273 30.4774V26.6634L91.7891 38.2133L75.4273 30.4774ZM92.1313 37.7859L76.5237 26.7683L83.399 28.9963L92.1313 37.7843V37.7859ZM82.7863 26.8309L75.7321 19.7307L78.4552 17.902L82.7863 26.8309ZM78.4303 16.6025L75.4179 10.39V10.3759L90.2044 8.69906L78.4318 16.6025H78.4303ZM91.192 8.03522L77.5983 9.5774L99.7252 2.30805L91.1935 8.03522H91.192Z" fill="black"/>
<path d="M131.32 53.0106H128.167V56.1842H131.32V53.0106Z" fill="black"/>
<path d="M92.9274 48.2102V60.9923H106.554V58.1193H96.3488V55.8381H105.641V53.3691H96.3488V51.1051H106.549V48.2102H92.9274Z" fill="black"/>
<path d="M67.3011 48.2085H56.5176V60.9921H59.9623V57.6541H66.805C68.0071 57.6541 68.6183 57.8843 68.6183 59.1462V60.9937H72.0381V58.4605C72.0381 57.197 71.4456 56.4329 70.2295 56.1198L69.6991 55.9836L70.2295 55.8442C71.6244 55.4763 72.1423 54.5275 72.1423 52.3434C72.1423 49.1385 71.0568 48.2117 67.3011 48.2117V48.2085ZM67.1736 54.6716H59.9607V51.1801H67.1736C68.1829 51.1801 68.6541 51.6937 68.6541 52.7975C68.6541 53.9013 68.4068 54.67 67.1736 54.67" fill="black"/>
<path d="M120.856 59.1463V60.9938H124.282V58.4606C124.282 57.1971 123.688 56.4315 122.466 56.1199L121.932 55.9837L122.464 55.8428C123.862 55.4749 124.382 54.5261 124.382 52.342C124.382 49.1371 123.296 48.2102 119.544 48.2102H108.76V60.9938H112.203V57.6558H119.041C120.271 57.6558 120.856 57.8797 120.856 59.1479V59.1463ZM112.202 51.1803H119.411C120.419 51.1803 120.889 51.6938 120.889 52.7976C120.889 53.9014 120.642 54.6701 119.411 54.6701H112.202V51.1787V51.1803Z" fill="black"/>
<path d="M80.1391 48.2085L73.2823 60.9921H77.234L78.4859 58.8159H86.4639L87.6972 60.9921H91.6846L84.9585 48.2085H80.1406H80.1391ZM79.8203 55.9601L82.4858 50.8968L85.2136 55.9601H79.8203V55.9601Z" fill="black"/>
<path d="M54.4758 57.5979C54.4758 55.7755 53.8522 54.8878 52.3888 54.6279L51.9082 54.5433L52.3592 54.357C53.5334 53.8701 54.0574 53.0591 54.0574 51.7236C54.0574 49.3265 52.8164 48.2102 50.1524 48.2102H39.358V60.9938H50.7216C53.3872 60.9938 54.4758 60.009 54.4758 57.5979V57.5979ZM42.7825 50.8593H49.4386C50.0949 50.8593 50.535 51.3494 50.535 52.0805C50.535 52.854 50.1353 53.297 49.4386 53.297H42.7825V50.8593ZM49.7699 58.315H42.7825V55.6753H49.7699C50.4759 55.6753 50.9331 56.1841 50.9331 56.9685C50.9331 57.8124 50.4977 58.315 49.7699 58.315Z" fill="black"/>
<path d="M12.7166 55.8379V53.3673H3.42292V51.1049H13.631V48.2084H0V60.992H13.6341V58.119H3.42292V55.8379H12.7166Z" fill="black"/>
<path d="M33.4849 51.6969V60.9923H36.9124V48.2102H30.7929L26.342 56.5286L21.8849 48.2102H15.8726V60.9923H19.294V51.6891H19.6159L24.5862 60.9923H28.0931L33.1023 51.6969H33.4849Z" fill="black"/>
<path d="M142.917 54.4741L148.996 48.1974H144.568L140.704 52.2117L136.838 48.1974H132.385L138.464 54.4741L132.132 60.9998H136.586L140.702 56.7365L144.796 60.9998H149.248L142.917 54.4741Z" fill="black"/>
</svg>
